# xmcd CD database file
#
# Track frame offsets:
#	150
#	16371
#	31094
#	44573
#	57472
#	70248
#	81597
#	96589
#	108934
#	128315
#	147890
#	162410
#	174765
#	187885
#	201456
#	215777
#	232922
#	250092
#	267924
#	286051
#
# Disc length: 3997 seconds
#
# Revision: 1
# Processed by: cddbd v1.4PL0 Copyright (c) Steve Scherf et al.
# Submitted via: CDex 1.40Release
#
DISCID=1e0f9b14
DTITLE=Kenny Rogers - Complete - CD 2 - A Star Begins To Shine
DYEAR=1998
DGENRE=Country
TTITLE0=Lucille
TTITLE1=(Hey Won't You Play) Another Somebody Done Somebody Wrong Song
TTITLE2=The Son Of Hikory Holler's Tramp
TTITLE3=Sleep Tight, Goodnight Man
TTITLE4=A Little Bit More Like Me
TTITLE5=Baby I'm A Want You
TTITLE6=In And Out Of Your Heart
TTITLE7=Old Folks
TTITLE8=The Long Arm Of The Law
TTITLE9=Sweet Music Man
TTITLE10=But You Know I Love You
TTITLE11=Mother Country Music
TTITLE12=Tulsa Turnaround
TTITLE13=Together Again
TTITLE14=Love The World Away
TTITLE15=One Man's Woman
TTITLE16=Lay Down Beside Me
TTITLE17=Tennessee Bottle
TTITLE18=While The Feeling's Good
TTITLE19=Let's Take The Long Way Around The World
EXTD=YEAR: 1998 ID3G: 2
EXTT0=
EXTT1=
EXTT2=
EXTT3=
EXTT4=
EXTT5=
EXTT6=
EXTT7=
EXTT8=
EXTT9=
EXTT10=
EXTT11=
EXTT12=
EXTT13=
EXTT14=
EXTT15=
EXTT16=
EXTT17=
EXTT18=
EXTT19=
PLAYORDER=
